<svg version="1.1" id="Layer_1" xmlns="http://www.w3.org/2000/svg" xmlns:xlink="http://www.w3.org/1999/xlink" x="0px" y="0px"
	 width="100%" viewBox="0 0 432 432" enable-background="new 0 0 432 432" xml:space="preserve">
<path fill="#000000" opacity="1.000000" stroke="none" 
	d="
M293.318176,369.367065 
	C267.037964,389.254150 237.370850,399.738922 205.400253,404.239014 
	C191.567307,406.186066 177.679459,407.973907 163.643463,407.128235 
	C158.004700,406.788483 152.376663,406.264252 146.896255,404.708435 
	C137.755020,402.113312 131.375732,395.927002 125.919769,388.588348 
	C113.299141,371.612640 104.058838,352.844086 96.671921,333.102661 
	C94.806465,328.117249 92.951630,323.127045 91.009941,318.171173 
	C85.045708,302.948303 94.241447,292.854645 102.838120,290.045227 
	C114.252953,286.314880 124.126442,292.742676 129.134277,305.846161 
	C136.440353,324.963226 144.281631,343.868866 155.090302,361.403687 
	C158.027161,366.168182 161.633194,368.525787 167.119064,368.631226 
	C198.814438,369.240326 229.541443,364.906342 258.117218,350.294769 
	C274.736877,341.796722 287.535217,328.607452 299.482178,314.647888 
	C314.043457,297.633636 327.344910,279.780457 334.412354,258.071777 
	C335.928558,253.414413 336.759766,248.813080 336.733582,243.909164 
	C336.686615,235.119278 343.168884,228.733093 351.758850,228.674927 
	C360.684326,228.614487 366.773804,235.009933 367.431824,243.949493 
	C368.660217,260.638641 362.547424,275.445862 355.617371,289.803589 
	C342.004456,318.006958 322.814941,342.175842 299.806793,363.351135 
	C297.724030,365.268005 295.657990,367.203064 293.318176,369.367065 
z"/>
<path fill="#000000" opacity="1.000000" stroke="none" 
	d="
M134.723969,174.929901 
	C132.695267,132.533356 134.267212,90.568756 133.597382,48.623924 
	C133.525864,44.146629 132.780594,39.679771 132.715836,35.202755 
	C132.597031,26.984743 138.394638,20.340593 145.949326,19.683107 
	C154.818039,18.911261 161.659775,24.139202 163.353607,32.582588 
	C164.839340,39.988689 164.505142,47.505447 164.935532,54.951462 
	C166.068222,74.547989 166.634689,94.179413 167.264908,113.802132 
	C167.756485,129.108047 167.894592,144.425537 168.418640,159.730057 
	C168.617111,165.526230 169.298416,171.320816 170.038467,177.080292 
	C171.418381,187.819412 167.653763,195.789078 159.442444,198.980331 
	C148.621353,203.185852 137.331650,196.450241 135.759644,184.810577 
	C135.337173,181.682449 135.075745,178.532562 134.723969,174.929901 
z"/>
<path fill="#000000" opacity="1.000000" stroke="none" 
	d="
M268.142731,182.807022 
	C263.362030,177.382629 262.828094,170.903381 262.851227,164.652161 
	C262.923340,145.159286 261.892090,125.719276 260.596130,106.295570 
	C259.290466,86.726715 257.501129,67.190331 255.961700,47.636734 
	C255.466110,41.341648 254.811203,35.040619 254.731155,28.735933 
	C254.628418,20.644220 260.742584,14.200340 268.439392,13.684674 
	C277.288879,13.091782 284.318512,18.544292 285.289490,27.128193 
	C287.734070,48.739269 290.029175,70.367287 292.370026,91.990051 
	C294.820251,114.622864 297.415466,137.243027 297.438171,160.060883 
	C297.441132,163.035812 298.122528,166.003647 298.303955,168.986069 
	C298.783112,176.863464 295.940887,183.146652 288.630280,186.594894 
	C281.226013,190.087265 274.374268,188.648376 268.142731,182.807022 
z"/>
</svg>