<svg version="1.1" id="Layer_1" xmlns="http://www.w3.org/2000/svg" xmlns:xlink="http://www.w3.org/1999/xlink" x="0px" y="0px"
	 width="100%" viewBox="0 0 295 295" enable-background="new 0 0 295 295" xml:space="preserve">
<path fill="#FFFFFF" opacity="1.000000" stroke="none" 
	d="
M192.000000,296.000000 
	C128.000015,296.000000 64.500023,296.000000 1.000026,296.000000 
	C1.000017,197.666702 1.000017,99.333389 1.000009,1.000065 
	C99.333282,1.000043 197.666565,1.000043 295.999878,1.000022 
	C295.999939,99.333275 295.999939,197.666550 295.999969,295.999908 
	C261.500000,296.000000 227.000000,296.000000 192.000000,296.000000 
M111.529396,57.031197 
	C99.386360,58.715801 87.227821,60.298725 75.109596,62.146080 
	C71.403969,62.710983 69.465324,64.959709 69.912987,69.174210 
	C70.315292,72.961624 70.314461,76.858894 69.915146,80.646942 
	C69.448296,85.075661 71.444382,87.345680 75.433037,87.946365 
	C87.234108,89.723564 99.014954,91.997040 110.891441,92.839516 
	C139.650635,94.879608 168.453064,94.612251 197.171829,91.884331 
	C205.225266,91.119354 213.196365,89.355476 221.156189,87.798904 
	C224.588089,87.127777 226.532654,85.098808 226.090622,81.050682 
	C225.677322,77.265663 225.678177,73.365219 226.085052,69.578789 
	C226.582413,64.950256 224.529694,62.600304 220.301224,61.984539 
	C208.327789,60.240917 196.364944,57.599350 184.338043,57.222248 
	C160.406357,56.471870 136.434570,57.000378 111.529396,57.031197 
M104.993240,121.599983 
	C95.004120,123.100342 84.997231,124.494141 75.035034,126.155899 
	C71.289803,126.780624 69.463120,129.084839 69.915855,133.250793 
	C70.309380,136.871872 70.345329,140.611206 69.912804,144.223236 
	C69.327148,149.114029 71.580666,151.452576 75.991814,152.096741 
	C87.637756,153.797424 99.257179,156.023544 110.971062,156.847046 
	C139.733582,158.869125 168.538361,158.625778 197.255951,155.871994 
	C205.464005,155.084915 213.570908,153.151962 221.689117,151.565079 
	C224.831345,150.950867 226.334518,148.985367 226.077271,145.467316 
	C225.762314,141.160370 225.750397,136.793533 226.080414,132.488846 
	C226.353653,128.924789 224.672501,127.248947 221.657410,126.338593 
	C219.917435,125.813232 218.162888,125.190048 216.373352,124.997955 
	C201.848373,123.438797 187.334808,121.022095 172.776840,120.696579 
	C150.507736,120.198639 128.205948,121.162476 104.993240,121.599983 
M103.145172,182.844299 
	C93.978279,184.218170 84.799690,185.519699 75.649727,186.998322 
	C71.462692,187.674942 69.370056,189.980362 69.913071,194.618057 
	C70.336266,198.232422 70.310143,201.969803 69.917633,205.591171 
	C69.441368,209.985291 71.359566,212.328888 75.379211,212.935272 
	C87.180824,214.715576 98.962082,216.994980 110.839355,217.837097 
	C139.600571,219.876358 168.405365,219.617554 197.126526,216.886353 
	C205.180634,216.120468 213.152939,214.362244 221.113647,212.807709 
	C224.524216,212.141693 226.502899,210.175674 226.097519,206.093597 
	C225.671722,201.805817 225.810226,197.431488 226.067139,193.116714 
	C226.250015,190.045181 224.923950,188.426453 222.231125,187.593979 
	C220.337296,187.008499 218.444519,186.239655 216.499573,186.028183 
	C201.976761,184.449005 187.460144,181.999008 172.904984,181.718170 
	C149.971924,181.275711 127.010246,182.316650 103.145172,182.844299 
z"/>
<path fill="#010101" opacity="1.000000" stroke="none" 
	d="
M112.004372,57.015854 
	C136.434570,57.000378 160.406357,56.471870 184.338043,57.222248 
	C196.364944,57.599350 208.327789,60.240917 220.301224,61.984539 
	C224.529694,62.600304 226.582413,64.950256 226.085052,69.578789 
	C225.678177,73.365219 225.677322,77.265663 226.090622,81.050682 
	C226.532654,85.098808 224.588089,87.127777 221.156189,87.798904 
	C213.196365,89.355476 205.225266,91.119354 197.171829,91.884331 
	C168.453064,94.612251 139.650635,94.879608 110.891441,92.839516 
	C99.014954,91.997040 87.234108,89.723564 75.433037,87.946365 
	C71.444382,87.345680 69.448296,85.075661 69.915146,80.646942 
	C70.314461,76.858894 70.315292,72.961624 69.912987,69.174210 
	C69.465324,64.959709 71.403969,62.710983 75.109596,62.146080 
	C87.227821,60.298725 99.386360,58.715801 112.004372,57.015854 
z"/>
<path fill="#010101" opacity="1.000000" stroke="none" 
	d="
M105.455643,121.552887 
	C128.205948,121.162476 150.507736,120.198639 172.776840,120.696579 
	C187.334808,121.022095 201.848373,123.438797 216.373352,124.997955 
	C218.162888,125.190048 219.917435,125.813232 221.657410,126.338593 
	C224.672501,127.248947 226.353653,128.924789 226.080414,132.488846 
	C225.750397,136.793533 225.762314,141.160370 226.077271,145.467316 
	C226.334518,148.985367 224.831345,150.950867 221.689117,151.565079 
	C213.570908,153.151962 205.464005,155.084915 197.255951,155.871994 
	C168.538361,158.625778 139.733582,158.869125 110.971062,156.847046 
	C99.257179,156.023544 87.637756,153.797424 75.991814,152.096741 
	C71.580666,151.452576 69.327148,149.114029 69.912804,144.223236 
	C70.345329,140.611206 70.309380,136.871872 69.915855,133.250793 
	C69.463120,129.084839 71.289803,126.780624 75.035034,126.155899 
	C84.997231,124.494141 95.004120,123.100342 105.455643,121.552887 
z"/>
<path fill="#010101" opacity="1.000000" stroke="none" 
	d="
M103.602921,182.786957 
	C127.010246,182.316650 149.971924,181.275711 172.904984,181.718170 
	C187.460144,181.999008 201.976761,184.449005 216.499573,186.028183 
	C218.444519,186.239655 220.337296,187.008499 222.231125,187.593979 
	C224.923950,188.426453 226.250015,190.045181 226.067139,193.116714 
	C225.810226,197.431488 225.671722,201.805817 226.097519,206.093597 
	C226.502899,210.175674 224.524216,212.141693 221.113647,212.807709 
	C213.152939,214.362244 205.180634,216.120468 197.126526,216.886353 
	C168.405365,219.617554 139.600571,219.876358 110.839355,217.837097 
	C98.962082,216.994980 87.180824,214.715576 75.379211,212.935272 
	C71.359566,212.328888 69.441368,209.985291 69.917633,205.591171 
	C70.310143,201.969803 70.336266,198.232422 69.913071,194.618057 
	C69.370056,189.980362 71.462692,187.674942 75.649727,186.998322 
	C84.799690,185.519699 93.978279,184.218170 103.602921,182.786957 
z"/>
</svg>